<svg xmlns="http://www.w3.org/2000/svg" xmlns:xlink="http://www.w3.org/1999/xlink" version="1.1" x="0px" y="0px" viewBox="0 0 100 125" enable-background="new 0 0 100 100" xml:space="preserve"><path d="M29.2,67c-1.3-0.6-2.8,0-3.4,1.3l-2.1,4.8c-0.6,1.3,0,2.9,1.3,3.5c0.3,0.2,0.7,0.2,1.1,0.2c1,0,1.9-0.6,2.4-1.6l2.1-4.8  C31.1,69.2,30.5,67.6,29.2,67z"/><path d="M44.4,64.9c-1.3-0.6-2.8,0-3.4,1.3L38.9,71c-0.6,1.3,0,2.9,1.3,3.5c0.3,0.2,0.7,0.2,1.1,0.2c1,0,1.9-0.6,2.4-1.6l2.1-4.8  C46.3,67,45.7,65.5,44.4,64.9z"/><path d="M72.3,26.6c-0.6,0-1.2,0-1.8,0.1c-1.9-6.5-7.9-11.2-14.7-11.2c-0.8,0-1.9,0.1-2.9,0.2c-3.9-3.4-8-5-12.8-5  c-10.3,0-18.6,7.6-20.3,18.2c-4.5,2.9-7.4,7.7-7.4,12.4c0,8.1,6.6,14.8,14.7,14.8h4.2l-1.1,2.4c-0.6,1.3,0,2.9,1.3,3.5  c0.3,0.2,0.7,0.2,1.1,0.2c1,0,1.9-0.6,2.3-1.5l2.1-4.7h8.6l-0.1,0.3c-0.6,1.3,0,2.9,1.3,3.5c0.3,0.2,0.7,0.2,1.1,0.2  c1,0,1.9-0.6,2.4-1.5l1.1-2.5h8.7l-1.1,2.4c-0.6,1.3,0,2.9,1.3,3.5c0.4,0.2,0.7,0.2,1.1,0.2c1,0,1.9-0.6,2.3-1.5l2.1-4.7h6.8  c8.4,0,15.4-6.8,15.4-14.8C87.7,33.4,80.6,26.6,72.3,26.6z M72.3,50.9H27c-5.9,0-9.5-4.9-9.5-9.4c0-3.1,2.4-6.6,5.8-8.4l1.3-0.7  l0.1-1.4c0.9-8.6,7.4-14.9,15.4-14.9c3.9,0,7.1,1.4,10.3,4.5l1,1l1.3-0.3c0.7-0.2,2.2-0.3,3.1-0.3c5.2,0,9.5,4,10.1,9.2l0.4,3  l2.9-0.8c1-0.3,2.1-0.4,3.1-0.4c5.5,0,10.2,4.4,10.2,9.5C82.5,46.5,77.7,50.9,72.3,50.9z"/><path d="M57.8,67c-1.3-0.6-2.8,0-3.4,1.3l-2.1,4.8c-0.6,1.3,0,2.9,1.3,3.5c0.3,0.2,0.7,0.2,1.1,0.2c1,0,1.9-0.6,2.4-1.6l2.1-4.8  C59.7,69.2,59.1,67.6,57.8,67z"/><path d="M38,79.3c-1.3-0.6-2.8,0-3.4,1.3l-2.1,4.8c-0.6,1.3,0,2.9,1.3,3.5c0.3,0.2,0.7,0.2,1.1,0.2c1,0,1.9-0.6,2.3-1.5l2.1-4.8  C39.9,81.5,39.3,79.9,38,79.3z"/></svg>